<svg xmlns="http://www.w3.org/2000/svg" xmlns:xlink="http://www.w3.org/1999/xlink" width="17" height="16" preserveAspectRatio="xMidYMid meet" viewBox="0 0 17 16" style="-ms-transform: rotate(360deg); -webkit-transform: rotate(360deg); transform: rotate(360deg);"><g fill="#626262" fill-rule="evenodd"><path d="M7 10h.938v.953H7z"/><path d="M9 10h.938v.953H9z"/><path d="M11 10h.938v.953H11z"/><path d="M2.062 14.98c0 .562.45 1.02 1.006 1.02h12.863c.556 0 1.006-.457 1.006-1.02l-1.938-6.021V6h-1.976c0 .011.005.021.005.031c0 .998-1.534.818-3.071.969h-.976c-1.528-.15-3.025.029-3.025-.969c0-.011.005-.021.005-.031h-1.94v2H1v2.938h1V9h2.009l-1.947 5.98zm2.907-4.011h1v-.953h-1l.016-1.047h1.047v1h.938v-1h1.062v1h.938v-1h1.062v1h.938v-1h1.062v1h.938v-1h1.062v1.047h-1v.953h1v1.047h-1.047v-1h-.956v1h-1.051v-1H10.013v.953h.007v.047H8.979v-1h-.972v1H6.971v-1H6v1H4.969v-1.047zM4.979 13h9.041v1H4.979v-1z"/><path d="M16.021 3v1.049H14.94l-.002-3.027l-10.913.041v2.986H2.96V3h-.938v3h.938V4.951h13.062V6h.97V3h-.971z"/></g><rect x="0" y="0" width="17" height="16" fill="rgba(0, 0, 0, 0)" /></svg>