<svg xmlns="http://www.w3.org/2000/svg" xmlns:xlink="http://www.w3.org/1999/xlink" width="496" height="472" preserveAspectRatio="xMidYMid meet" viewBox="0 0 496 472" style="-ms-transform: rotate(360deg); -webkit-transform: rotate(360deg); transform: rotate(360deg);"><path d="M312 3q-8-4-16 .5T286 18L169 404q-4 18 15 25q8 4 16-.5t10-14.5L325 28q7-18-13-25zm45 320q14 14 30 0l106-107l-106-107q-16-14-30 0q-16 16 0 30l77 77l-77 77q-12 14 0 30zm-250 0q16 14 30 0q16-16 0-30l-75-77l77-77q16-14 0-30q-14-14-30 0L3 216z" fill="#626262"/><rect x="0" y="0" width="496" height="472" fill="rgba(0, 0, 0, 0)" /></svg>